<svg id="Layer_1" data-name="Layer 1" xmlns="http://www.w3.org/2000/svg" viewBox="0 0 160.7 160.7"><defs><style>.cls-1{fill:none;stroke:#0c2b54;stroke-miterlimit:10;stroke-width:8px;}.cls-2{fill:#f24a2f;}</style></defs><circle class="cls-1" cx="80.35" cy="80.35" r="68.31"/><path class="cls-2" d="M82.77,92.6a1,1,0,0,1-1-1V45.43a1,1,0,0,1,1.95,0v46.2a1,1,0,0,1-1,1"/><path class="cls-2" d="M82.77,119.38a1,1,0,0,1-1-1v-15a1,1,0,1,1,1.95,0v15a1,1,0,0,1-1,1"/><path class="cls-2" d="M92.48,82.89H46.28a1,1,0,1,1,0-1.94h46.2a1,1,0,0,1,0,1.94"/><path class="cls-2" d="M119.26,82.89h-15a1,1,0,1,1,0-1.94h15a1,1,0,0,1,0,1.94"/><path class="cls-2" d="M104.16,56.3a5.41,5.41,0,1,1-5.41-5.41,5.41,5.41,0,0,1,5.41,5.41"/><path class="cls-2" d="M98.72,98.17a.79.79,0,0,1-.79-.8V95.86a.79.79,0,0,1,1.58,0v1.51a.79.79,0,0,1-.79.8m0-4.53a.79.79,0,0,1-.79-.79V91.34a.79.79,0,1,1,1.58,0v1.51a.79.79,0,0,1-.79.79m0-4.53a.79.79,0,0,1-.79-.79V86.81a.79.79,0,0,1,1.58,0v1.51a.79.79,0,0,1-.79.79m0-4.53a.79.79,0,0,1-.79-.79V82.28a.79.79,0,1,1,1.58,0v1.51a.79.79,0,0,1-.79.79m0-4.52a.79.79,0,0,1-.79-.8v-1.5a.79.79,0,0,1,1.58,0v1.5a.79.79,0,0,1-.79.8m0-4.53a.79.79,0,0,1-.79-.79V73.23a.79.79,0,0,1,1.58,0v1.51a.79.79,0,0,1-.79.79m0-4.53a.79.79,0,0,1-.79-.79V68.7a.79.79,0,0,1,1.58,0v1.51a.79.79,0,0,1-.79.79m0-4.52a.79.79,0,0,1-.79-.79V64.18a.79.79,0,1,1,1.58,0v1.51a.79.79,0,0,1-.79.79"/><path class="cls-2" d="M95.85,98.17H94.19a.8.8,0,1,1,0-1.59h1.66a.8.8,0,0,1,0,1.59m-5,0H89.2a.8.8,0,0,1,0-1.59h1.66a.8.8,0,0,1,0,1.59m-5,0H84.22a.8.8,0,0,1,0-1.59h1.66a.8.8,0,0,1,0,1.59m-5,0H79.24a.8.8,0,0,1,0-1.59H80.9a.8.8,0,0,1,0,1.59m-5,0H74.25a.8.8,0,0,1,0-1.59h1.66a.8.8,0,0,1,0,1.59"/><path class="cls-2" d="M59.64,86.56A10.59,10.59,0,0,0,49.05,97.15a11.24,11.24,0,0,0,.09,1.32c.91,8.27,9.82,17.82,9.82,17.82a1.73,1.73,0,0,0,.45.36h0l.3.1.29-.1h0a1.61,1.61,0,0,0,.46-.36s8.79-9.56,9.68-17.84c0-.42.08-.85.08-1.3a10.6,10.6,0,0,0-10.6-10.59m-2.83,3.66a1.48,1.48,0,0,1,.34-.5,1.66,1.66,0,0,1,.49-.34,1.51,1.51,0,0,1,.63-.13,1.42,1.42,0,0,1,.61.13,1.75,1.75,0,0,1,.51.34,1.32,1.32,0,0,1,.33.5,1.53,1.53,0,0,1,.12.6A1.57,1.57,0,0,1,59.39,92a1.52,1.52,0,0,1-1.12.46,1.68,1.68,0,0,1-.63-.12,1.87,1.87,0,0,1-.49-.34,1.58,1.58,0,0,1-.34-.5,1.45,1.45,0,0,1-.13-.63,1.38,1.38,0,0,1,.13-.6m6.67,10.68a4.8,4.8,0,0,1-.21.64,5,5,0,0,1-.81,1.45,5.4,5.4,0,0,1-1.21,1.13,6,6,0,0,1-1.51.72,5.91,5.91,0,0,1-1.69.25,5.53,5.53,0,0,1-2.15-.42,5.77,5.77,0,0,1-1.76-1.15,5.49,5.49,0,0,1-1.19-1.7,5.21,5.21,0,0,1-.19-3.69,5.14,5.14,0,0,1,.73-1.44,5.44,5.44,0,0,1,1.13-1.17,6.21,6.21,0,0,1,1.45-.81.72.72,0,0,1,.54,0,.64.64,0,0,1,.36.36.65.65,0,0,1-.41.85,4.14,4.14,0,0,0-1.09.61,4.42,4.42,0,0,0-.85.88,4.08,4.08,0,0,0-.55,1.08,3.78,3.78,0,0,0-.19,1.21,3.82,3.82,0,0,0,.33,1.58,4,4,0,0,0,.89,1.28,4.48,4.48,0,0,0,1.33.86,4.32,4.32,0,0,0,2.9.13,4.39,4.39,0,0,0,1.13-.55,4.32,4.32,0,0,0,.91-.85A3.75,3.75,0,0,0,62,101.1a2.13,2.13,0,0,0,.15-.49.68.68,0,0,1,.3-.42.64.64,0,0,1,.51-.09.76.76,0,0,1,.44.29.64.64,0,0,1,.09.51m3.57,2.72a.8.8,0,0,1-.58.24.87.87,0,0,1-.48-.14.88.88,0,0,1-.3-.36l-2.23-3.88h-4a1.11,1.11,0,0,1-.71-.24,1,1,0,0,1-.38-.63l-.92-4.48h0a.57.57,0,0,1,0-.14,1.16,1.16,0,0,1,.37-.87,1.26,1.26,0,0,1,.91-.36,1.23,1.23,0,0,1,.77.25,1.26,1.26,0,0,1,.45.64v.06s0,0,0,0,0,0,0,0l.15.78h2.64a.61.61,0,0,1,.3.08.64.64,0,0,1,.33.41.62.62,0,0,1-.06.5.53.53,0,0,1-.28.27.77.77,0,0,1-.39.07H60.4l.34,1.66h2.87a1.06,1.06,0,0,1,.61.17,1.11,1.11,0,0,1,.41.45l2.58,4.5a.73.73,0,0,1,.09.35.79.79,0,0,1-.25.58"/></svg>