<svg id="Layer_1" data-name="Layer 1" xmlns="http://www.w3.org/2000/svg" viewBox="0 0 160.7 160.7"><defs><style>.cls-1{fill:#f24a2f;}.cls-2{fill:none;stroke:#0c2b54;stroke-miterlimit:10;stroke-width:8px;}</style></defs><path class="cls-1" d="M82.67,82.56A10.12,10.12,0,1,1,72.54,92.68,10.12,10.12,0,0,1,82.67,82.56"/><path class="cls-1" d="M121.73,82.15h-8.3A20.24,20.24,0,0,1,93.19,61.91v-8.3A2.23,2.23,0,0,0,91,51.39H74.36a2.22,2.22,0,0,0-2.22,2.22V62a20.24,20.24,0,0,1-20.25,20.2h-8.3a2.23,2.23,0,0,0-2.22,2.23V101a2.23,2.23,0,0,0,2.22,2.22H60.2A2.23,2.23,0,0,0,62.42,101v-8.3a20.24,20.24,0,1,1,40.48,0V101a2.24,2.24,0,0,0,2.23,2.22h16.6A2.24,2.24,0,0,0,124,101V84.38a2.25,2.25,0,0,0-2.23-2.23"/><circle class="cls-2" cx="80.35" cy="80.35" r="68.31"/></svg>