<svg id="Layer_1" data-name="Layer 1" xmlns="http://www.w3.org/2000/svg" viewBox="0 0 160.7 160.7"><defs><style>.cls-1{fill:none;stroke:#0c2b54;stroke-miterlimit:10;stroke-width:8px;}.cls-2{fill:#f24a2f;}</style></defs><circle class="cls-1" cx="80.35" cy="80.35" r="68.31"/><path class="cls-2" d="M106.29,61.65a.63.63,0,0,0-.49.19.69.69,0,0,0-.21.49l-.08,13.45a.68.68,0,0,0,.42.63.75.75,0,0,0,.26,0,.64.64,0,0,0,.48-.21l9.51-9.79a.71.71,0,0,0,.19-.49.69.69,0,0,0-.22-.48A15.3,15.3,0,0,0,106.29,61.65Zm.59,12.44L107,63a14.06,14.06,0,0,1,7.75,3Z"/><path class="cls-2" d="M119.92,87.1l-15.15-8V62.25a.68.68,0,0,0-.67-.68h-.36c-9.66,0-17.24,7.87-17.24,17.92a18,18,0,0,0,17.93,17.93c6.69,0,13.34-4,15.79-9.43A.67.67,0,0,0,119.92,87.1Zm-15.49,9A16.58,16.58,0,0,1,87.86,79.48c0-9.17,6.8-16.38,15.55-16.56V79.48a.67.67,0,0,0,.36.6L118.71,88C116.26,92.69,110.38,96.05,104.43,96.05Z"/><path class="cls-2" d="M119.7,69.91a18.39,18.39,0,0,0-1.21-1.67.49.49,0,0,0-.27-.15.43.43,0,0,0-.11-.28c-.22-.25-.41-.45-.6-.64a.39.39,0,0,0-.32-.13.51.51,0,0,0-.33.13l-1.33,1.38a.42.42,0,0,0-.11.18l-.15.47a.45.45,0,0,0-.48.1l-2.48,2.55a.52.52,0,0,0-.11.19l-.15.47a.45.45,0,0,0-.48.1l-2.48,2.55a.49.49,0,0,0-.11.18l-.15.48a.45.45,0,0,0-.48.1l-2,2a.47.47,0,0,0-.12.39.46.46,0,0,0,.23.33l1.16.62a.5.5,0,0,0,.21,0h0a.58.58,0,0,0,.17.18l1.45.77a.5.5,0,0,0,.21,0h0a.48.48,0,0,0,.17.18l1.44.77a.54.54,0,0,0,.22,0h0a.45.45,0,0,0,.18.18l1.44.77a.54.54,0,0,0,.22,0h0a.45.45,0,0,0,.18.18l1.44.77a.38.38,0,0,0,.21,0h0a.49.49,0,0,0,.17.18l1.45.77a.38.38,0,0,0,.21,0h0a.42.42,0,0,0,.17.18l1.44.77a.42.42,0,0,0,.22,0h0a.45.45,0,0,0,.18.18l.85.45a.39.39,0,0,0,.21.06l.13,0a.44.44,0,0,0,.27-.23,15.74,15.74,0,0,0,1.56-7.28c0-.27,0-.55,0-.84a.45.45,0,0,0-.34-.41l.2-.63a.41.41,0,0,0,0-.19,15.26,15.26,0,0,0-.76-3.1.41.41,0,0,0-.31-.29l0-.14a.47.47,0,0,0,0-.31A15.21,15.21,0,0,0,120,70.46a.43.43,0,0,0-.28-.21A.45.45,0,0,0,119.7,69.91Zm-12.13,8.33-.14-.08.25-.24Zm1.87,1-.63-.34,1-3.18,1.09-1.11Zm1.87,1-.63-.33,2.35-7.5,1.09-1.11Zm1.87,1-.63-.33,3.7-11.81.94-1,.07.08Zm1.86,1-.62-.33,3.89-12.42.51.73ZM120.12,85l-.1,0,1.18-3.78A13.15,13.15,0,0,1,120.12,85Zm1.1-8.5-2.44,7.78-.63-.33L120.94,75A13.89,13.89,0,0,1,121.22,76.46Zm-1.46-4.62c.15.32.3.63.43,1l-3.28,10.45-.63-.33Z"/><path class="cls-2" d="M42.92,97.12A1.1,1.1,0,0,0,44,98.21l33.63-.41a1.1,1.1,0,1,0,0-2.2L44,96A1.09,1.09,0,0,0,42.92,97.12Z"/><path class="cls-2" d="M57.16,93.54h0l5.07-.09a2.13,2.13,0,0,0,1.87-2.34L64,71.88a2.54,2.54,0,0,0-.71-1.78A1.66,1.66,0,0,0,62,69.59L57,69.68A2.12,2.12,0,0,0,55.09,72l.17,19.23A2.49,2.49,0,0,0,56,93,1.72,1.72,0,0,0,57.16,93.54ZM57,71.28l5.06-.08c.06,0,.29.24.29.7l.17,19.23c0,.47-.23.72-.29.72l-5.06.08c-.06,0-.29-.23-.3-.7L56.69,72C56.69,71.53,56.93,71.28,57,71.28Z"/><path class="cls-2" d="M70.47,93.47h0l5.07-.12c1.07,0,1.87-1.27,1.86-2.9l-.17-26.31a3.42,3.42,0,0,0-.83-2.39,1.54,1.54,0,0,0-1.1-.46l-5.06.12c-1.07,0-1.88,1.27-1.87,2.91l.17,26.3A3.42,3.42,0,0,0,69.41,93,1.51,1.51,0,0,0,70.47,93.47ZM70.36,63l5-.12a2,2,0,0,1,.35,1.25l.17,26.31a2,2,0,0,1-.35,1.28l-5,.12a1.9,1.9,0,0,1-.35-1.25L70,64.31A2,2,0,0,1,70.36,63Z"/><path class="cls-2" d="M50,76.31a1.69,1.69,0,0,0-1.21-.5l-5.07.08h0a2.14,2.14,0,0,0-1.87,2.35l.12,13.08a2.49,2.49,0,0,0,.7,1.78,1.71,1.71,0,0,0,1.19.51h0l5.07-.09a2.13,2.13,0,0,0,1.87-2.34L50.66,78.1A2.54,2.54,0,0,0,50,76.31ZM48.88,91.92,43.81,92c-.06,0-.28-.23-.29-.7l-.11-13.08c0-.48.23-.72.29-.72l5.06-.09c.07,0,.29.25.29.7l.12,13.09A.81.81,0,0,1,48.88,91.92Z"/></svg>