<svg id="Layer_1" data-name="Layer 1" xmlns="http://www.w3.org/2000/svg" viewBox="0 0 160.7 160.7"><defs><style>.cls-1{fill:none;stroke:#0c2b54;stroke-miterlimit:10;stroke-width:8px;}.cls-2{fill:#f24a2f;}</style></defs><circle class="cls-1" cx="80.35" cy="80.35" r="68.31"/><path class="cls-2" d="M83.27,99.85a.58.58,0,0,1-.59-.58v-.78a.59.59,0,0,1,1.17,0v.78a.58.58,0,0,1-.58.58m0-3.11a.58.58,0,0,1-.59-.58v-.78a.59.59,0,1,1,1.17,0v.78a.58.58,0,0,1-.58.58m0-3.12a.58.58,0,0,1-.59-.58v-.78a.59.59,0,0,1,1.17,0V93a.58.58,0,0,1-.58.58m0-3.11a.58.58,0,0,1-.59-.58v-.78a.59.59,0,0,1,1.17,0v.78a.58.58,0,0,1-.58.58m0-3.11a.58.58,0,0,1-.59-.59V86a.59.59,0,0,1,1.17,0v.78a.58.58,0,0,1-.58.59m0-3.12a.58.58,0,0,1-.59-.58v-.78a.59.59,0,0,1,1.17,0v.78a.58.58,0,0,1-.58.58m0-3.11a.58.58,0,0,1-.59-.59v-.77a.59.59,0,1,1,1.17,0v.77a.58.58,0,0,1-.58.59m0-3.74a.58.58,0,0,1-.59-.58v-.78a.59.59,0,1,1,1.17,0v.78a.58.58,0,0,1-.58.58"/><path class="cls-2" d="M102.71,57.78v57.45a4.5,4.5,0,0,1-4.49,4.49H68.6a4.5,4.5,0,0,1-4.48-4.49V57.78a4.5,4.5,0,0,1,4.48-4.49H98.22a4.5,4.5,0,0,1,4.49,4.49m-24.58-.7a.54.54,0,0,0,.55.53h9.47a.54.54,0,1,0,0-1.08H78.68a.54.54,0,0,0-.55.55m7.52,58.15a2.24,2.24,0,1,0-2.24,2.24,2.24,2.24,0,0,0,2.24-2.24M98.72,60.41H68v51H98.72Z"/><path class="cls-2" d="M86.43,103.7a3.17,3.17,0,1,1-3.16-3.16,3.17,3.17,0,0,1,3.16,3.16"/><path class="cls-2" d="M86.58,71.68a3.32,3.32,0,1,1-3.31-3.32,3.31,3.31,0,0,1,3.31,3.32"/><path class="cls-2" d="M89.9,71.68h-.18a6.45,6.45,0,1,1-1.89-4.57,6.41,6.41,0,0,1,1.89,4.57h.36a6.82,6.82,0,1,0-6.81,6.81,6.82,6.82,0,0,0,6.81-6.81Z"/></svg>