<?xml version="1.0" encoding="utf-8"?>
<!-- Generator: Adobe Illustrator 24.1.3, SVG Export Plug-In . SVG Version: 6.00 Build 0)  -->
<svg version="1.1" id="Layer_1" xmlns="http://www.w3.org/2000/svg" xmlns:xlink="http://www.w3.org/1999/xlink" x="0px" y="0px"
	 viewBox="0 0 160.7 160.7" style="enable-background:new 0 0 160.7 160.7;" xml:space="preserve">
<style type="text/css">
	.st0{fill:#E94C33;}
	.st1{fill:none;stroke:#1C2E51;stroke-width:8;stroke-miterlimit:10;}
</style>
<g>
	<g>
		<path class="st0" d="M81.3,93.9c-6,0-10.9,4.9-10.9,10.9c0,6,4.9,10.9,10.9,10.9c6,0,10.9-4.9,10.9-10.9
			C92.2,98.8,87.3,93.9,81.3,93.9 M79.8,109.9l-5.1-5.1l2.1-2.1l3.1,3.1l6.2-6.2l2.1,2.1L79.8,109.9z"/>
		<path class="st0" d="M102.3,90.1c2.2-2.2,2.2-5.7,0-7.9c-11.5-11.5-30.2-11.5-41.6,0c-2.2,2.2-2.2,5.7,0,7.9
			c2.2,2.2,5.7,2.2,7.9,0c7.1-7.1,18.7-7.1,25.8,0c1.1,1.1,2.5,1.6,4,1.6C99.7,91.8,101.2,91.2,102.3,90.1"/>
		<path class="st0" d="M53.9,75.7c7.4-7.4,17.1-11.4,27.5-11.4c10.4,0,20.2,4.1,27.5,11.4c2.2,2.2,5.7,2.2,7.9,0
			c2.2-2.2,2.2-5.7,0-7.9c-9.5-9.5-22-14.7-35.4-14.7c-13.4,0-26,5.2-35.4,14.7c-2.2,2.2-2.2,5.7,0,7.9c1.1,1.1,2.5,1.6,4,1.6
			C51.4,77.4,52.8,76.8,53.9,75.7"/>
	</g>
</g>
<circle class="st1" cx="80" cy="80" r="68.3"/>
</svg>
