<svg id="Layer_1" data-name="Layer 1" xmlns="http://www.w3.org/2000/svg" viewBox="0 0 160.7 160.7"><defs><style>.cls-1,.cls-2{fill:#f24a2f;}.cls-2{fill-rule:evenodd;}.cls-3{fill:none;stroke:#0c2b54;stroke-miterlimit:10;stroke-width:8px;}</style></defs><path class="cls-1" d="M117.11,95.17h-9A4.64,4.64,0,0,0,104.81,92V81.71a1.16,1.16,0,1,0-2.32,0V92a4.66,4.66,0,0,0-3.29,3.19H91.85a11.31,11.31,0,1,0-22.61,0h-8a4.64,4.64,0,0,0-3.33-3.33V82a1.16,1.16,0,0,0-2.32,0v9.85a4.64,4.64,0,0,0-3.32,3.33H43.14a1.16,1.16,0,1,0,0,2.31h9.11a4.63,4.63,0,0,0,9,0h8.26a11.3,11.3,0,0,0,22.13,0h7.52a4.63,4.63,0,0,0,9,0h8.94a1.16,1.16,0,1,0,0-2.31M56.73,98.64a2.32,2.32,0,1,1,2.32-2.32,2.32,2.32,0,0,1-2.32,2.32M79,100.49l-5.33-5.32L75.75,93l3.2,3.2,6.39-6.39L87.47,92Zm24.7-1.71A2.32,2.32,0,1,1,106,96.46a2.32,2.32,0,0,1-2.32,2.32"/><path class="cls-2" d="M113.75,81.88H92A2.89,2.89,0,0,1,89.13,79V63.87A2.9,2.9,0,0,1,92,61h21.73a2.9,2.9,0,0,1,2.89,2.89V79a2.89,2.89,0,0,1-2.89,2.88M92,63.19a.68.68,0,0,0-.69.68V79a.69.69,0,0,0,.69.69h21.73a.68.68,0,0,0,.68-.69V63.87a.67.67,0,0,0-.68-.68Z"/><path class="cls-2" d="M110,77.49H95.78a2.25,2.25,0,0,1-2.25-2.25V67.63a2.25,2.25,0,0,1,2.25-2.24H110a2.25,2.25,0,0,1,2.24,2.24v7.61A2.25,2.25,0,0,1,110,77.49m-14.21-9.9,0,7.65a0,0,0,0,0,0,.05H110l0-7.66Z"/><path class="cls-1" d="M56.73,72.64a3,3,0,1,0,3,3,3,3,0,0,0-3-3"/><path class="cls-1" d="M49.4,72.38a1.22,1.22,0,0,1-.68-.2,1.26,1.26,0,0,1-.39-1.74,10,10,0,0,1,16.8,0A1.27,1.27,0,0,1,63,71.78a7.46,7.46,0,0,0-12.54,0,1.24,1.24,0,0,1-1.06.58"/><path class="cls-1" d="M44.55,67.47a1.27,1.27,0,0,1-1-2,16.8,16.8,0,0,1,26.39,0,1.26,1.26,0,0,1-2,1.52,14.28,14.28,0,0,0-22.35,0,1.27,1.27,0,0,1-1,.51"/><circle class="cls-3" cx="80.35" cy="80.35" r="68.31"/></svg>